# xmcd
#
# Track frame offsets:
# 150
# 16833
# 33138
# 46136
# 61696
# 76894
# 95646
# 110319
# 123989
# 141301
# 156452
# 172271
#
# Disc length: 2483 seconds
#
#
# Revision: 0
# Processed by: cddbd v1.5.2PL0 Copyright (c) Steve Scherf et al.
# Submitted via: FreeRIP 2.951 
#
DISCID=9509b10c
DTITLE=Travis Tritt - My Honky Tonk History
DYEAR=1900
DGENRE=Country Rock
TTITLE0=When in Rome
TTITLE1=Honky Tonk History
TTITLE2=The Girls Gone Wild
TTITLE3=Too Far to Turn Around
TTITLE4=What You Say ( with John Mellancamp)
TTITLE5=Circus Leaving Town
TTITLE6=Monkey Around
TTITLE7=When Good Ol' Boys Go Bad
TTITLE8=I See Me
TTITLE9=We've Had It All
TTITLE10=It's All About The Money
TTITLE11=Small Doses
EXTD=
EXTT0=
EXTT1=
EXTT2=
EXTT3=
EXTT4=
EXTT5=
EXTT6=
EXTT7=
EXTT8=
EXTT9=
EXTT10=
EXTT11=
PLAYORDER=
